# xmcd
#
# Track frame offsets:
#	183
#	19460
#	32993
#	46608
#	61798
#	77603
#	91858
#	105858
#	118808
#	139170
#	151710
#	165183
#	178508
#	198558
#	218763
#	231033
#
# Disc length: 3286 seconds
#
# Revision: 1
# Processed by: cddbd v1.5.2PL0 Copyright (c) Steve Scherf et al.
# Submitted via: audiograbber 1.83.01
#
DISCID=be0cd410
DTITLE=Bix Beiderbecke - Bix and the Paul Whiteman Orchestra
DYEAR=1929
DGENRE=Jazz
TTITLE0=Washboard Blues
TTITLE1=Changes
TTITLE2=Lonely Melody
TTITLE3=San
TTITLE4=There ain't No Sweet Man
TTITLE5=Dardanella
TTITLE6=From Monday On
TTITLE7=You Took Advantage of me
TTITLE8=My Melancholy Baby
TTITLE9=Tain't So Honey T'ain't So
TTITLE10=That's My Weakness Now
TTITLE11=Because My Baby Don't Mean Maybe
TTITLE12=Gipsy
TTITLE13=Sweet Sue
TTITLE14=China Boy
TTITLE15=Oh Miss Hannah
EXTD=YEAR: 1929
EXTT0=
EXTT1=
EXTT2=
EXTT3=
EXTT4=
EXTT5=
EXTT6=
EXTT7=
EXTT8=
EXTT9=
EXTT10=
EXTT11=
EXTT12=
EXTT13=
EXTT14=
EXTT15=
PLAYORDER=
